<?xml version="1.0" encoding="UTF-8"?>
<!-- Created with Inkscape (http://www.inkscape.org/) -->
<svg width="100mm" height="100mm" version="1.1" viewBox="0 0 100 100" xmlns="http://www.w3.org/2000/svg"><g stroke-width=".35084"><path d="m59.998 99.982v-98.234h15.998c7.4845 0 13.004 2.1518 16.559 6.4554 3.5551 4.21 5.3327 10.899 5.3327 20.068 0 11.414-3.9761 18.431-11.928 21.05 4.7714 1.1227 8.2797 3.5084 10.525 7.157 2.3389 3.6487 3.5084 8.7943 3.5084 15.437 0 9.5427-1.7776 16.606-5.3327 21.19-3.5551 4.5842-9.0282 6.8764-16.419 6.8764zm11.227-54.169h5.473c7.2038 0 10.806-5.473 10.806-16.419v-3.368c0-5.3327-0.88878-9.2153-2.6664-11.648-1.684-2.526-4.3971-3.789-8.1394-3.789h-5.473zm0 45.328h6.736c3.8358 0 6.6425-1.3098 8.4201-3.9294 1.7776-2.7131 2.6664-6.9232 2.6664-12.63v-3.789c0-11.695-3.6955-17.542-11.086-17.542h-6.736z" fill="#999" aria-label="BEM"/><path d="m11.228 30.997 29.318 52.715-1.2514-52.715h11.227l0.07739 68.994h-14.033l-36.564-68.994z" style="inline-size:78.4262;white-space:pre" aria-label="V"/></g></svg>
