<?xml version="1.0" encoding="UTF-8" standalone="no"?>
<!-- Created with Inkscape (http://www.inkscape.org/) -->

<svg
   width="200mm"
   height="100mm"
   viewBox="0 0 200 100"
   version="1.1"
   id="svg1"
   inkscape:version="1.4.2 (ebf0e940, 2025-05-08)"
   sodipodi:docname="vbem.svg"
   xmlns:inkscape="http://www.inkscape.org/namespaces/inkscape"
   xmlns:sodipodi="http://sodipodi.sourceforge.net/DTD/sodipodi-0.dtd"
   xmlns="http://www.w3.org/2000/svg"
   xmlns:svg="http://www.w3.org/2000/svg">
  <sodipodi:namedview
     id="namedview1"
     pagecolor="#ffffff"
     bordercolor="#000000"
     borderopacity="0.25"
     inkscape:showpageshadow="2"
     inkscape:pageopacity="0.0"
     inkscape:pagecheckerboard="0"
     inkscape:deskcolor="#d1d1d1"
     inkscape:document-units="mm"
     inkscape:zoom="0.59134375"
     inkscape:cx="377.95276"
     inkscape:cy="261.26935"
     inkscape:window-width="976"
     inkscape:window-height="1186"
     inkscape:window-x="0"
     inkscape:window-y="25"
     inkscape:window-maximized="0"
     inkscape:current-layer="layer1" />
  <defs
     id="defs1" />
  <g
     inkscape:label="Layer 1"
     inkscape:groupmode="layer"
     id="layer1">
    <path
       d="M 59.66957,94.893803 V 6.2074495 h 14.443206 q 10.135583,0 14.949985,5.8279605 4.814402,5.701266 4.814402,18.117355 0,15.456765 -10.769057,19.004219 6.461434,1.520337 9.502109,6.461434 3.16737,4.941097 3.16737,13.936427 0,12.922869 -4.814402,19.130914 -4.814402,6.208044 -14.82329,6.208044 z M 69.805153,45.989614 h 4.941097 q 9.755499,0 9.755499,-14.82329 v -3.040675 q 0,-7.221604 -2.407201,-10.515668 -2.280506,-3.420759 -7.348298,-3.420759 h -4.941097 z m 0,40.922417 h 6.08135 q 5.194487,0 7.601688,-3.547454 2.407201,-3.674149 2.407201,-11.402531 v -3.420759 q 0,-15.836849 -10.008889,-15.836849 h -6.08135 z M 112.74199,54.731555 v 32.053782 h 22.04491 v 8.108466 H 102.60641 V 6.2074495 h 31.8004 v 8.1084665 h -21.66482 v 32.307172 h 19.76439 v 8.108467 z m 61.81428,21.15803 H 163.28043 L 152.51138,14.822696 v 80.071107 h -9.8822 V 6.2074495 h 15.45677 L 168.855,67.654423 179.75076,6.2074495 h 15.45677 V 94.893803 h -9.88221 V 14.822696 Z"
       id="text2"
       style="font-size:105.833px;line-height:0.9;font-family:'Pathway Gothic One';-inkscape-font-specification:'Pathway Gothic One';letter-spacing:-4.56142px;word-spacing:0px;fill:#999999;stroke-width:0.316738"
       aria-label="BEM" />
    <path
       d="M 15.135583,6 41.604311,79.989758 40.474541,6 h 10.135584 l 0.06987,88.686354 H 38.010518 L 5,6 Z"
       id="text2-3"
       style="font-size:105.833px;line-height:0.9;font-family:'Pathway Gothic One';-inkscape-font-specification:'Pathway Gothic One';white-space:pre;inline-size:78.4262;stroke-width:0.316738"
       aria-label="V" />
  </g>
</svg>
